<?xml version="1.0" encoding="utf-8"?>
<svg xmlns="http://www.w3.org/2000/svg" viewBox="0 0 32 32" width="512" height="512">
  <path d="M17.130859 4L19.798828 8L17.130859 12L25 12L25 28L27 28L27 4L17.130859 4 z M 20.869141 6L25 6L25 10L20.869141 10L22.201172 8L20.869141 6 z M 8 10L8 12L11.585938 12L5.2929688 18.292969L6.7070312 19.707031L13 13.414062L13 17L15 17L15 10L8 10 z M 21 14L21 28L23 28L23 14L21 14 z M 17 17L17 28L19 28L19 17L17 17 z M 13 20L13 28L15 28L15 20L13 20 z M 9 23L9 28L11 28L11 23L9 23 z M 5 26L5 28L7 28L7 26L5 26 z" fill="#EB163A" />
</svg>