<svg xmlns="http://www.w3.org/2000/svg" viewBox="0 0 39.88 29.98"><defs><style>.cls-1{fill:#939598;}</style></defs><g id="Layer_2" data-name="Layer 2"><g id="Layer_1-2" data-name="Layer 1"><path class="cls-1" d="M1.25,0C.52.1,0,.55,0,1.07V25.71c0,.59.69,1.07,1.53,1.07H13.81V25h-12V1.79H38.12V25h-12v1.81H38.35c.84,0,1.53-.48,1.53-1.07V1.07C39.88.48,39.19,0,38.35,0H1.25ZM11.41,7.59V9.87H28.47V7.59Zm0,5.84v1.62H28.47V13.43Zm8.53,3.32a1,1,0,0,0-1,.77h-.1a1,1,0,0,0-1.17.1,1.18,1.18,0,0,0-.33,1.16.1.1,0,0,1-.1.1,1.2,1.2,0,0,0-.87.87,1,1,0,0,0,.53,1.07V21a1.14,1.14,0,0,0-.1,1.16,1.32,1.32,0,0,0,1.07.53c.11,0,.12.14.23.14a1,1,0,0,0,.64.93.94.94,0,0,0,1.06-.3H20a1,1,0,0,0,.77.3.34.34,0,0,0,.3-.1,1,1,0,0,0,.63-1c.11,0,.12-.1.23-.1A.93.93,0,0,0,23,22.08a1,1,0,0,0-.1-1.16v-.2a1,1,0,0,0,.53-1,1.2,1.2,0,0,0-.86-.87.1.1,0,0,0-.1-.1,1.21,1.21,0,0,0-.34-1.16,1,1,0,0,0-1.16-.1h-.1A1.05,1.05,0,0,0,19.94,16.75Zm0,1.93a1.7,1.7,0,1,1-1.7,1.7A1.67,1.67,0,0,1,19.94,18.68Zm-3.2,4.7V30l3.2-2.14L23.14,30v-6.6a.8.8,0,0,1-.43.2,2,2,0,0,1-1.17,1.07,1.59,1.59,0,0,1-.73.1,2.19,2.19,0,0,1-.87-.2,2.69,2.69,0,0,1-.86.2,2.16,2.16,0,0,1-.74-.1,2,2,0,0,1-1.16-1.07A.56.56,0,0,1,16.74,23.38Z"/></g></g></svg>