<svg xmlns="http://www.w3.org/2000/svg" viewBox="0 0 38.59 38.57"><defs><style>.cls-1{fill:#939598;}</style></defs><g id="Layer_2" data-name="Layer 2"><g id="Layer_1-2" data-name="Layer 1"><path class="cls-1" d="M29.57,0a8,8,0,0,0-5.66,2.34l-4.1,4.1A8,8,0,0,0,18.48,16L16,18.47A8,8,0,0,0,6.45,19.8l-4.1,4.1a8,8,0,0,0,0,11.31l1,1a8,8,0,0,0,11.3,0l4.11-4.1a8,8,0,0,0,1.33-9.55l2.48-2.48a8,8,0,0,0,9.55-1.33l4.1-4.11a8,8,0,0,0,0-11.3l-1-1A8,8,0,0,0,29.57,0Zm0,1.45a6.53,6.53,0,0,1,4.62,1.91l1,1a6.52,6.52,0,0,1,0,9.24l-4.11,4.12A6.59,6.59,0,0,1,23.67,19L26,16.71a2.78,2.78,0,0,0,.51,0,3.6,3.6,0,0,0,2.56-1.06l4.11-4.11a3.62,3.62,0,0,0,0-5.14l-1-1a3.63,3.63,0,0,0-5.14,0l-4.11,4.1a3.64,3.64,0,0,0-1.06,2.57,2.85,2.85,0,0,0,0,.51l-2.31,2.3a6.4,6.4,0,0,1-.64-2.81,6.52,6.52,0,0,1,1.91-4.62L25,3.36A6.51,6.51,0,0,1,29.57,1.45ZM15.48,4.23a.73.73,0,0,0-.8.9l.37,1.41a.74.74,0,0,0,.71.54.57.57,0,0,0,.18,0,.73.73,0,0,0,.52-.89l-.38-1.4A.73.73,0,0,0,15.48,4.23ZM11.79,5.68a.71.71,0,0,0-.28.09.72.72,0,0,0-.26,1L12,8a.74.74,0,0,0,.63.36A.81.81,0,0,0,13,8.29a.74.74,0,0,0,.26-1L12.51,6A.71.71,0,0,0,11.79,5.68Zm17.78.12a2.22,2.22,0,0,1,1.54.64l1,1a2.17,2.17,0,0,1,0,3.08L28,14.66a2.28,2.28,0,0,1-.56.4,2.83,2.83,0,0,0,.38-1.43,2.9,2.9,0,0,0-2.9-2.9,2.83,2.83,0,0,0-1.43.38,2.17,2.17,0,0,1,.39-.56L28,6.44A2.18,2.18,0,0,1,29.57,5.8ZM8.87,8a.73.73,0,0,0-.52,1.24l1,1a.74.74,0,0,0,1,0,.74.74,0,0,0,0-1l-1-1A.7.7,0,0,0,8.87,8ZM6.65,11a.72.72,0,0,0-.72.35.73.73,0,0,0,.27,1l1.25.72a.71.71,0,0,0,.37.1.73.73,0,0,0,.36-1.36l-1.26-.72A.66.66,0,0,0,6.65,11ZM25,12.18a1.43,1.43,0,0,1,1,.43,1.44,1.44,0,0,1,0,2.05l-.42.43-1.06,1.06L22.4,18.23l-1,1-2.11,2.1-1,1-2.08,2.09L15.1,25.54l-.43.42a1.46,1.46,0,0,1-2.48-1,1.44,1.44,0,0,1,.43-1l.42-.42,1.06-1.06,2.09-2.08,1-1,2.1-2.1,1-1,2.08-2.09L23.49,13l.42-.42A1.44,1.44,0,0,1,25,12.18ZM5,14.5a.73.73,0,0,0-.09,1.42l1.4.38a.65.65,0,0,0,.19,0,.72.72,0,0,0,.7-.53.73.73,0,0,0-.51-.9l-1.41-.37A.67.67,0,0,0,5,14.5Zm7.09,4.41a6.4,6.4,0,0,1,2.81.64l-2.3,2.31a2.85,2.85,0,0,0-.51,0,3.6,3.6,0,0,0-2.56,1.06L5.43,27a3.62,3.62,0,0,0,0,5.14l1,1a3.65,3.65,0,0,0,5.14,0l4.11-4.1a3.64,3.64,0,0,0,1.06-2.57,2.78,2.78,0,0,0,0-.51L19,23.66a6.57,6.57,0,0,1-1.28,7.44l-4.11,4.11a6.54,6.54,0,0,1-9.24,0l-1-1a6.52,6.52,0,0,1,0-9.24l4.11-4.12A6.52,6.52,0,0,1,12.1,18.91Zm21,4.21a.71.71,0,0,0-.6.53.72.72,0,0,0,.51.89l1.41.37a.57.57,0,0,0,.18,0,.75.75,0,0,0,.71-.54.73.73,0,0,0-.52-.89l-1.4-.38A.72.72,0,0,0,33.14,23.12Zm-22,.39a2.93,2.93,0,0,0-.37,1.43,2.9,2.9,0,0,0,2.9,2.9,2.83,2.83,0,0,0,1.43-.38,2.2,2.2,0,0,1-.4.56l-4.11,4.11a2.18,2.18,0,0,1-3.08,0l-1-1a2.17,2.17,0,0,1,0-3.08l4.11-4.12A2.12,2.12,0,0,1,11.11,23.51ZM32,26.27a.71.71,0,0,0-.72.36.72.72,0,0,0,.27,1l1.26.72a.68.68,0,0,0,.36.1.72.72,0,0,0,.37-1.35l-1.26-.73A.71.71,0,0,0,32,26.27ZM29.86,29a.73.73,0,0,0-.52,1.24l1,1a.74.74,0,0,0,1,0,.74.74,0,0,0,0-1l-1-1A.73.73,0,0,0,29.86,29Zm-2.8,2.08a.94.94,0,0,0-.28.1.73.73,0,0,0-.26,1l.73,1.26a.71.71,0,0,0,.63.36.7.7,0,0,0,.36-.1.71.71,0,0,0,.26-1l-.72-1.26A.74.74,0,0,0,27.06,31.05Zm-3,1.31a.7.7,0,0,0-.29,0,.73.73,0,0,0-.52.89l.38,1.4a.72.72,0,0,0,.7.54l.19,0a.72.72,0,0,0,.51-.89l-.37-1.41A.73.73,0,0,0,24.1,32.36Z"/></g></g></svg>