<svg xmlns="http://www.w3.org/2000/svg" viewBox="0 0 40 39.94"><defs><style>.cls-1{fill:#6d6e71;}</style></defs><g id="Layer_2" data-name="Layer 2"><g id="Layer_1-2" data-name="Layer 1"><path class="cls-1" d="M20,39.93C9.19,40.2-.2,31,0,19.64a20,20,0,0,1,40,.51C39.92,31,30.71,40.19,20,39.93Zm0-2.26A17.8,17.8,0,0,0,37.74,20.14,17.89,17.89,0,0,0,19.55,2.25,17.71,17.71,0,0,0,20,37.67Z"/><path class="cls-1" d="M8.75,11.38A1.75,1.75,0,0,1,10,10.81H29.79a1.93,1.93,0,0,1,1.44.54,2.73,2.73,0,0,1-.27.31l-8,7.61c-.38.36-.77.7-1.16,1a7.71,7.71,0,0,1-.82.59,1.74,1.74,0,0,1-2,0,14.05,14.05,0,0,1-1.5-1.17c-1.11-1-2.19-2.08-3.28-3.12l-5-4.72Z"/><path class="cls-1" d="M8.74,28.56l7.58-7.23.38.29c.55.45,1.08.95,1.66,1.36a2.51,2.51,0,0,0,3.25,0c.56-.38,1.05-.84,1.57-1.27l.49-.41,7.58,7.23a1.63,1.63,0,0,1-1.1.57,4.64,4.64,0,0,1-.53,0H10.31A2,2,0,0,1,8.74,28.56Z"/><path class="cls-1" d="M32.62,27l-7.34-7c.28-.44,6.81-6.7,7.41-7.11a1.13,1.13,0,0,1,.12.72c0,2.52,0,5,0,7.56,0,1.65,0,3.3,0,4.94,0,.28,0,.55,0,.82Z"/><path class="cls-1" d="M7.31,27c-.16-.55-.17-13.46,0-14l0,0h.06l7.34,6.94C14.46,20.32,8,26.54,7.31,27Z"/></g></g></svg>