<svg xmlns="http://www.w3.org/2000/svg" viewBox="0 0 40 39.94"><defs><style>.cls-1{fill:#6d6e71;}</style></defs><g id="Layer_2" data-name="Layer 2"><g id="Layer_1-2" data-name="Layer 1"><path class="cls-1" d="M20,39.93C9.19,40.2-.2,31,0,19.64a20,20,0,0,1,40,.51C39.92,31,30.71,40.19,20,39.93Zm0-2.26A17.8,17.8,0,0,0,37.74,20.14,17.89,17.89,0,0,0,19.55,2.25,17.71,17.71,0,0,0,20,37.67Z"/><path class="cls-1" d="M19.24,7.88c5.34.07,9.06,3.83,8.93,8.57a7,7,0,0,1-.7,3q-2.1,4.11-4.22,8.19c-.61,1.16-1.22,2.33-1.9,3.45a1.48,1.48,0,0,1-2.7,0c-2.08-3.71-4.29-7.35-6-11.25A8.2,8.2,0,0,1,12.94,12,7.88,7.88,0,0,1,19.24,7.88ZM20,19.57a3.7,3.7,0,1,0-3.72-3.75A3.78,3.78,0,0,0,20,19.57Z"/></g></g></svg>