<svg xmlns="http://www.w3.org/2000/svg" viewBox="0 0 34.71 33.47"><defs><style>.cls-1{fill:#e62020;}</style></defs><g id="Layer_2" data-name="Layer 2"><g id="Layer_1-2" data-name="Layer 1"><path class="cls-1" d="M3.1,0A1.87,1.87,0,0,0,1.25,1.87,1.88,1.88,0,0,0,2.48,3.61V32.23H.62a.62.62,0,1,0,0,1.24H34.09a.62.62,0,1,0,0-1.24H32.23V11a1.86,1.86,0,0,0-.62-3.6H17.35V3.61A1.86,1.86,0,0,0,16.73,0H3.1Zm0,1.24H16.73a.62.62,0,1,1,0,1.24H3.1a.62.62,0,1,1,0-1.24Zm.62,2.48H16.11V28.51H12.4a1.25,1.25,0,0,0-1.24-1.24H8.68a1.24,1.24,0,0,0-1.24,1.24H3.72V6.2H9.3A.62.62,0,0,0,9.3,5H3.72ZM11.78,5a.62.62,0,1,0,0,1.24h2.47a.62.62,0,0,0,0-1.24Zm-5,2.48a.62.62,0,0,0-.62.62.62.62,0,0,0,.62.62H8.06a.62.62,0,0,0,.62-.62.62.62,0,0,0-.62-.62Zm5,0a.61.61,0,0,0-.62.62.62.62,0,0,0,.62.62H13a.62.62,0,0,0,.62-.62A.61.61,0,0,0,13,7.44Zm5.57,1.24H31.61a.62.62,0,0,1,.62.62.62.62,0,0,1-.62.62H17.35ZM6.82,9.92a.62.62,0,0,0-.62.62.62.62,0,0,0,.62.62H8.06a.62.62,0,0,0,.62-.62.62.62,0,0,0-.62-.62Zm5,0a.61.61,0,0,0-.62.62.62.62,0,0,0,.62.62H13a.62.62,0,0,0,.62-.62A.61.61,0,0,0,13,9.92Zm5.57,1.24H31V32.23H17.35V29.75H18a.62.62,0,0,0,0-1.24h-.62V27.27H18A.62.62,0,0,0,18,26h-.62V24.79H18a.62.62,0,1,0,0-1.24h-.62V22.31H18a.62.62,0,1,0,0-1.24h-.62V19.83H18a.62.62,0,1,0,0-1.24h-.62V17.35H18a.61.61,0,0,0,.62-.62.62.62,0,0,0-.62-.62h-.62V14.87H18a.61.61,0,0,0,.62-.62.62.62,0,0,0-.62-.62h-.62ZM6.82,12.4a.62.62,0,1,0,0,1.23H8.06a.62.62,0,1,0,0-1.23Zm5,0a.62.62,0,1,0,0,1.23H13a.62.62,0,1,0,0-1.23Zm9.91,1.23a.62.62,0,0,0-.62.62.62.62,0,0,0,.62.62h1.24a.62.62,0,0,0,.62-.62.62.62,0,0,0-.62-.62Zm5,0a.62.62,0,0,0-.62.62.62.62,0,0,0,.62.62h1.24a.62.62,0,0,0,.62-.62.62.62,0,0,0-.62-.62ZM6.82,14.87a.62.62,0,0,0-.62.62.62.62,0,0,0,.62.62H8.06a.62.62,0,0,0,.62-.62.62.62,0,0,0-.62-.62Zm5,0a.62.62,0,0,0-.62.62.61.61,0,0,0,.62.62H13a.61.61,0,0,0,.62-.62.62.62,0,0,0-.62-.62Zm9.91,1.24a.62.62,0,0,0-.62.62.62.62,0,0,0,.62.62h1.24a.62.62,0,0,0,.62-.62.62.62,0,0,0-.62-.62Zm5,0a.62.62,0,0,0-.62.62.62.62,0,0,0,.62.62h1.24a.62.62,0,0,0,.62-.62.62.62,0,0,0-.62-.62ZM6.82,17.35A.62.62,0,0,0,6.2,18a.62.62,0,0,0,.62.62H8.06A.62.62,0,0,0,8.68,18a.62.62,0,0,0-.62-.62Zm5,0a.62.62,0,0,0-.62.62.61.61,0,0,0,.62.62H13a.61.61,0,0,0,.62-.62.62.62,0,0,0-.62-.62Zm9.91,1.24a.62.62,0,1,0,0,1.24h1.24a.62.62,0,1,0,0-1.24Zm5,0a.62.62,0,1,0,0,1.24h1.24a.62.62,0,1,0,0-1.24ZM6.82,19.83a.62.62,0,1,0,0,1.24H8.06a.62.62,0,1,0,0-1.24Zm5,0a.62.62,0,0,0,0,1.24H13a.62.62,0,1,0,0-1.24Zm9.91,1.24a.62.62,0,1,0,0,1.24h1.24a.62.62,0,1,0,0-1.24Zm5,0a.62.62,0,0,0,0,1.24h1.24a.62.62,0,1,0,0-1.24ZM6.82,22.31a.62.62,0,1,0,0,1.24H8.06a.62.62,0,1,0,0-1.24Zm5,0a.62.62,0,1,0,0,1.24H13a.62.62,0,0,0,0-1.24Zm9.91,1.24a.62.62,0,1,0,0,1.24h1.24a.62.62,0,1,0,0-1.24Zm5,0a.62.62,0,0,0,0,1.24h1.24a.62.62,0,1,0,0-1.24ZM6.82,24.79a.62.62,0,1,0,0,1.24H8.06a.62.62,0,0,0,0-1.24Zm5,0a.62.62,0,1,0,0,1.24H13a.62.62,0,1,0,0-1.24ZM21.69,26a.62.62,0,0,0,0,1.24h1.24a.62.62,0,0,0,0-1.24Zm5,0a.62.62,0,0,0,0,1.24h1.24a.62.62,0,0,0,0-1.24Zm-18,2.48h2.48v3.72H8.68Zm13,0a.62.62,0,0,0,0,1.24h1.24a.62.62,0,0,0,0-1.24Zm5,0a.62.62,0,0,0,0,1.24h1.24a.62.62,0,0,0,0-1.24ZM3.72,29.75H7.44v2.48H3.72Zm8.68,0h3.71v2.48H12.4Z"/></g></g></svg>