<svg xmlns="http://www.w3.org/2000/svg" viewBox="0 0 40 39.94"><defs><style>.cls-1{fill:#6d6e71;}</style></defs><g id="Layer_2" data-name="Layer 2"><g id="Layer_1-2" data-name="Layer 1"><path class="cls-1" d="M20,39.93C9.19,40.2-.2,31,0,19.64a20,20,0,0,1,40,.51C39.92,31,30.71,40.19,20,39.93Zm0-2.26A17.8,17.8,0,0,0,37.74,20.14,17.89,17.89,0,0,0,19.55,2.25,17.71,17.71,0,0,0,20,37.67Z"/><path class="cls-1" d="M14.26,15.7c1,5.06,3.9,8.61,8,11.42.24-.5.46-1,.72-1.48.68-1.29,1.39-1.57,2.75-1.05a9.35,9.35,0,0,1,3.89,2.77,4.55,4.55,0,0,1,.58.95,1.13,1.13,0,0,1-.06,1.15A6.37,6.37,0,0,1,25,32.66a4.63,4.63,0,0,1-2.42-.52A24.68,24.68,0,0,1,11.06,19.92a17,17,0,0,1-1.35-7.16,7.2,7.2,0,0,1,.81-3.21,4.15,4.15,0,0,1,3-2.22,1.55,1.55,0,0,1,1.6.47,7.62,7.62,0,0,1,.76.94,10.36,10.36,0,0,1,1.57,4,5.14,5.14,0,0,1,0,1.11,1.24,1.24,0,0,1-1,1.18C15.77,15.26,15,15.48,14.26,15.7Z"/></g></g></svg>