<svg width="42" height="50" viewBox="0 0 42 50" fill="none" xmlns="http://www.w3.org/2000/svg">
<g clip-path="url(#clip0_25_42)">
<path d="M20.7002 0.720001C19.0702 0.720001 17.4402 1.22999 16.0402 2.23999L13.9102 3.79001H2.49011C1.18011 3.79001 0.120117 4.86 0.120117 6.16V47.31C0.120117 48.62 1.19011 49.68 2.49011 49.68H38.8901C40.2001 49.68 41.2601 48.61 41.2601 47.31V6.16C41.2601 4.85 40.1901 3.79001 38.8901 3.79001H27.4702L25.3402 2.23999C23.9602 1.22999 22.3302 0.720001 20.7002 0.720001ZM20.7002 2.31C22.0002 2.31 23.3102 2.70999 24.4202 3.51999L27.6301 5.86002C28.2401 6.31002 28.6101 7.03 28.6101 7.78V9.33002C28.6101 9.77002 28.2502 10.12 27.8202 10.12H13.5802C13.1402 10.12 12.7902 9.76002 12.7902 9.33002V7.78C12.7902 7.02 13.1501 6.30002 13.7701 5.86002L16.9801 3.51999C18.0901 2.70999 19.3902 2.31 20.7002 2.31ZM20.7002 3.79001C19.8302 3.79001 19.1201 4.5 19.1201 5.37C19.1201 6.24 19.8302 6.95001 20.7002 6.95001C21.5702 6.95001 22.2802 6.24 22.2802 5.37C22.2802 4.5 21.5702 3.79001 20.7002 3.79001ZM2.49011 5.38H12.0201C11.5001 6.06 11.2002 6.91 11.2002 7.78V8.54001H6.4502C5.5802 8.54001 4.87012 9.25 4.87012 10.12V43.36C4.87012 44.23 5.5802 44.94 6.4502 44.94H28.7401C29.3701 44.94 29.9702 44.69 30.4202 44.24L35.8202 38.84C36.2702 38.39 36.5201 37.8 36.5201 37.16V10.12C36.5201 9.25 35.8102 8.54001 34.9402 8.54001H30.1902V7.78C30.1902 6.9 29.8901 6.06 29.3701 5.38H38.9001C39.3401 5.38 39.6902 5.74001 39.6902 6.17001V47.32C39.6902 47.76 39.3301 48.11 38.9001 48.11H2.50012C2.06012 48.11 1.71021 47.75 1.71021 47.32V6.17001C1.70021 5.73001 2.06011 5.38 2.49011 5.38ZM6.4502 10.12H11.3402C11.6702 11.04 12.5402 11.7 13.5702 11.7H27.8102C28.8402 11.7 29.7102 11.04 30.0402 10.12H34.9302V37.03H30.1802C29.3102 37.03 28.6001 37.74 28.6001 38.61V43.36H6.44019V10.12H6.4502ZM8.82019 13.29C8.38019 13.29 8.03015 13.65 8.03015 14.08V15.66C8.03015 16.1 8.38019 16.45 8.82019 16.45C9.26019 16.45 9.61011 16.09 9.61011 15.66V14.08C9.62011 13.65 9.26019 13.29 8.82019 13.29ZM12.7802 13.29C12.3402 13.29 11.9901 13.65 11.9901 14.08V15.66C11.9901 16.1 12.3402 16.45 12.7802 16.45C13.2202 16.45 13.5702 16.09 13.5702 15.66V14.08C13.5702 13.65 13.2202 13.29 12.7802 13.29ZM16.7401 13.29C16.3001 13.29 15.9502 13.65 15.9502 14.08V15.66C15.9502 16.1 16.3001 16.45 16.7401 16.45C17.1801 16.45 17.5302 16.09 17.5302 15.66V14.08C17.5302 13.65 17.1801 13.29 16.7401 13.29ZM20.7002 13.29C20.2602 13.29 19.9102 13.65 19.9102 14.08V15.66C19.9102 16.1 20.2602 16.45 20.7002 16.45C21.1402 16.45 21.4901 16.09 21.4901 15.66V14.08C21.4901 13.65 21.1302 13.29 20.7002 13.29ZM24.6501 13.29C24.2101 13.29 23.8601 13.65 23.8601 14.08V15.66C23.8601 16.1 24.2101 16.45 24.6501 16.45C25.0901 16.45 25.4402 16.09 25.4402 15.66V14.08C25.4402 13.65 25.0901 13.29 24.6501 13.29ZM28.6101 13.29C28.1701 13.29 27.8202 13.65 27.8202 14.08V15.66C27.8202 16.1 28.1701 16.45 28.6101 16.45C29.0501 16.45 29.4001 16.09 29.4001 15.66V14.08C29.4001 13.65 29.0501 13.29 28.6101 13.29ZM32.5702 13.29C32.1302 13.29 31.7802 13.65 31.7802 14.08V15.66C31.7802 16.1 32.1302 16.45 32.5702 16.45C33.0102 16.45 33.3601 16.09 33.3601 15.66V14.08C33.3601 13.65 33.0002 13.29 32.5702 13.29ZM12.7802 20.41C12.5802 20.41 12.3702 20.49 12.2202 20.64L11.2002 21.66L10.9702 21.43C10.6602 21.12 10.1601 21.12 9.8501 21.43C9.5401 21.74 9.5401 22.24 9.8501 22.55L10.6401 23.34C10.7901 23.49 11.0002 23.57 11.2002 23.57C11.4002 23.57 11.6001 23.49 11.7601 23.34L13.3402 21.76C13.6502 21.45 13.6502 20.95 13.3402 20.64C13.1902 20.49 12.9802 20.41 12.7802 20.41ZM16.7401 21.2C16.3001 21.2 15.9502 21.56 15.9502 21.99C15.9502 22.43 16.3001 22.78 16.7401 22.78H30.9801C31.4201 22.78 31.7701 22.42 31.7701 21.99C31.7701 21.55 31.4201 21.2 30.9801 21.2H16.7401ZM12.7802 25.16C12.5802 25.16 12.3702 25.24 12.2202 25.39L11.2002 26.41L10.9702 26.18C10.6602 25.87 10.1601 25.87 9.8501 26.18C9.5401 26.49 9.5401 26.99 9.8501 27.3L10.6401 28.09C10.7901 28.24 11.0002 28.32 11.2002 28.32C11.4002 28.32 11.6001 28.24 11.7601 28.09L13.3402 26.51C13.6502 26.2 13.6502 25.7 13.3402 25.39C13.1902 25.24 12.9802 25.16 12.7802 25.16ZM16.7401 25.95C16.3001 25.95 15.9502 26.31 15.9502 26.74C15.9502 27.18 16.3001 27.53 16.7401 27.53H27.8202C28.2602 27.53 28.6101 27.17 28.6101 26.74C28.6101 26.3 28.2602 25.95 27.8202 25.95H16.7401ZM12.7802 29.91C12.5802 29.91 12.3702 29.99 12.2202 30.14L11.2002 31.16L10.9702 30.93C10.6602 30.62 10.1601 30.62 9.8501 30.93C9.5401 31.24 9.5401 31.74 9.8501 32.05L10.6401 32.84C10.7901 32.99 11.0002 33.07 11.2002 33.07C11.4002 33.07 11.6001 32.99 11.7601 32.84L13.3402 31.26C13.6502 30.95 13.6502 30.45 13.3402 30.14C13.1902 29.99 12.9802 29.91 12.7802 29.91ZM16.7401 30.7C16.3001 30.7 15.9502 31.06 15.9502 31.49C15.9502 31.93 16.3001 32.28 16.7401 32.28H29.4001C29.8401 32.28 30.1902 31.92 30.1902 31.49C30.1902 31.05 29.8401 30.7 29.4001 30.7H16.7401ZM12.7802 34.66C12.5802 34.66 12.3702 34.74 12.2202 34.89L11.2002 35.91L10.9702 35.68C10.6602 35.37 10.1601 35.37 9.8501 35.68C9.5401 35.99 9.5401 36.49 9.8501 36.8L10.6401 37.59C10.7901 37.74 11.0002 37.82 11.2002 37.82C11.4002 37.82 11.6001 37.74 11.7601 37.59L13.3402 36.01C13.6502 35.7 13.6502 35.2 13.3402 34.89C13.1902 34.73 12.9802 34.66 12.7802 34.66ZM16.7401 35.45C16.3001 35.45 15.9502 35.81 15.9502 36.24C15.9502 36.67 16.3001 37.03 16.7401 37.03H21.4901C21.9301 37.03 22.2802 36.67 22.2802 36.24C22.2802 35.81 21.9301 35.45 21.4901 35.45H16.7401ZM30.1902 38.61H33.8202L30.1902 42.24V38.61Z" fill="white"/>
</g>
<defs>
<clipPath id="clip0_25_42">
<rect width="41.14" height="48.96" fill="white" transform="translate(0.120117 0.720001)"/>
</clipPath>
</defs>
</svg>
