<svg width="43" height="43" viewBox="0 0 43 43" fill="none" xmlns="http://www.w3.org/2000/svg">
<g clip-path="url(#clip0_25_38)">
<path d="M17.6299 0.600006C8.31988 0.600006 0.72998 8.19 0.72998 17.5C0.72998 26.81 8.31988 34.4 17.6299 34.4C21.6599 34.4 25.3599 32.98 28.2699 30.61L39.7 42.04C40.37 42.74 41.4799 42.76 42.1699 42.09C42.8699 41.42 42.89 40.31 42.22 39.62C42.2 39.6 42.1899 39.59 42.1699 39.57L30.74 28.14C33.1 25.23 34.5299 21.53 34.5299 17.5C34.5299 8.18 26.9399 0.600006 17.6299 0.600006ZM17.6299 4.09C25.0499 4.09 31.0299 10.07 31.0299 17.49C31.0299 21.11 29.5999 24.37 27.2899 26.78C27.1499 26.88 27.0199 27.01 26.9199 27.15C24.5099 29.46 21.2499 30.89 17.6299 30.89C10.2099 30.89 4.22998 24.91 4.22998 17.49C4.22998 10.07 10.2099 4.09 17.6299 4.09Z" fill="white"/>
</g>
<defs>
<clipPath id="clip0_25_38">
<rect width="41.9791" height="41.9791" fill="white" transform="translate(0.72998 0.600006)"/>
</clipPath>
</defs>
</svg>
