<svg width="40" height="39" viewBox="0 0 40 39" fill="none" xmlns="http://www.w3.org/2000/svg">
<g clip-path="url(#clip0_25_40)">
<path d="M3.66992 0.160004C1.88992 0.160004 0.429932 1.61999 0.429932 3.39999C0.429932 5.17999 1.88992 6.64001 3.66992 6.64001C5.44992 6.64001 6.90991 5.17999 6.90991 3.39999C6.90991 1.61999 5.45992 0.160004 3.66992 0.160004ZM3.66992 1.45001C4.74992 1.45001 5.60999 2.31001 5.60999 3.39001C5.60999 4.47001 4.74992 5.33002 3.66992 5.33002C2.58992 5.33002 1.72998 4.47001 1.72998 3.39001C1.72998 2.31001 2.58992 1.45001 3.66992 1.45001ZM3.66992 2.75C3.30992 2.75 3.0199 3.03999 3.0199 3.39999C3.0199 3.75999 3.30992 4.05002 3.66992 4.05002C4.02992 4.05002 4.31995 3.75999 4.31995 3.39999C4.31995 3.03999 4.02992 2.75 3.66992 2.75ZM10.1499 2.75V4.04001H39.2899V2.75H10.1499ZM3.66992 11.16C1.88992 11.16 0.429932 12.62 0.429932 14.4C0.429932 16.18 1.88992 17.64 3.66992 17.64C5.44992 17.64 6.90991 16.18 6.90991 14.4C6.90991 12.62 5.45992 11.16 3.66992 11.16ZM3.66992 12.46C4.74992 12.46 5.60999 13.32 5.60999 14.4C5.60999 15.48 4.74992 16.34 3.66992 16.34C2.58992 16.34 1.72998 15.48 1.72998 14.4C1.72998 13.32 2.58992 12.46 3.66992 12.46ZM3.66992 13.75C3.30992 13.75 3.0199 14.04 3.0199 14.4C3.0199 14.76 3.30992 15.05 3.66992 15.05C4.02992 15.05 4.31995 14.76 4.31995 14.4C4.31995 14.04 4.02992 13.75 3.66992 13.75ZM10.1499 13.75V15.04H39.2899V13.75H10.1499ZM3.66992 21.52C1.88992 21.52 0.429932 22.98 0.429932 24.76C0.429932 26.54 1.88992 28 3.66992 28C5.44992 28 6.90991 26.54 6.90991 24.76C6.90991 22.98 5.45992 21.52 3.66992 21.52ZM3.66992 22.82C4.74992 22.82 5.60999 23.68 5.60999 24.76C5.60999 25.84 4.74992 26.7 3.66992 26.7C2.58992 26.7 1.72998 25.84 1.72998 24.76C1.72998 23.68 2.58992 22.82 3.66992 22.82ZM3.66992 24.11C3.30992 24.11 3.0199 24.4 3.0199 24.76C3.0199 25.12 3.30992 25.41 3.66992 25.41C4.02992 25.41 4.31995 25.12 4.31995 24.76C4.31995 24.4 4.02992 24.11 3.66992 24.11ZM10.1499 24.11V25.4H39.2899V24.11H10.1499ZM3.66992 32.53C1.88992 32.53 0.429932 33.99 0.429932 35.77C0.429932 37.55 1.88992 39.01 3.66992 39.01C5.44992 39.01 6.90991 37.55 6.90991 35.77C6.90991 33.99 5.45992 32.53 3.66992 32.53ZM3.66992 33.82C4.74992 33.82 5.60999 34.68 5.60999 35.76C5.60999 36.84 4.74992 37.7 3.66992 37.7C2.58992 37.7 1.72998 36.84 1.72998 35.76C1.72998 34.69 2.58992 33.82 3.66992 33.82ZM3.66992 35.12C3.30992 35.12 3.0199 35.41 3.0199 35.77C3.0199 36.13 3.30992 36.42 3.66992 36.42C4.02992 36.42 4.31995 36.13 4.31995 35.77C4.31995 35.41 4.02992 35.12 3.66992 35.12ZM10.1499 35.12V36.41H39.2899V35.12H10.1499Z" fill="white"/>
</g>
<defs>
<clipPath id="clip0_25_40">
<rect width="38.86" height="38.85" fill="white" transform="translate(0.429932 0.160004)"/>
</clipPath>
</defs>
</svg>
