<svg xmlns="http://www.w3.org/2000/svg" viewBox="0 0 42.31 38.9"><defs><style>.cls-1{fill:#939598;}</style></defs><g id="Layer_2" data-name="Layer 2"><g id="Layer_1-2" data-name="Layer 1"><path class="cls-1" d="M21.16,0a13,13,0,0,0-13,13c0,3.39,1.9,5.93,3.73,8.38,1.48,2,2.86,3.84,3.09,6v4.75a4.78,4.78,0,0,0,4.1,4.72v.74a1.36,1.36,0,0,0,1.36,1.36h1.37a1.36,1.36,0,0,0,1.36-1.36V36.8a4.77,4.77,0,0,0,4.1-4.72V27.94c0-2.22,1.29-4.12,2.75-6.09l0,.15a.69.69,0,0,0,.67.52h2.63a.67.67,0,0,0,.66-.52l.65-2.58.56-.24,2.29,1.38a.67.67,0,0,0,.83-.11l1.86-1.86a.68.68,0,0,0,.1-.83L39,15.47a5.48,5.48,0,0,0,.23-.56l2.59-.64a.69.69,0,0,0,.52-.67V11a.69.69,0,0,0-.52-.67L39.2,9.66A5.48,5.48,0,0,0,39,9.1l1.37-2.29a.68.68,0,0,0-.1-.83L38.38,4.12a.65.65,0,0,0-.83-.1L35.26,5.39l-.56-.24-.65-2.59a.68.68,0,0,0-.66-.51H30.76a.69.69,0,0,0-.67.51l-.2.83A12.94,12.94,0,0,0,21.16,0Zm0,1.36A11.51,11.51,0,0,1,29.5,4.93l-.06.22-.56.24L26.6,4a.67.67,0,0,0-.84.1L23.9,6a.67.67,0,0,0-.1.83L25.17,9.1a5.48,5.48,0,0,0-.23.56l-2.59.64a.7.7,0,0,0-.52.67V13.6a.7.7,0,0,0,.52.67l2.59.64a5.48,5.48,0,0,0,.23.56L23.8,17.76a.67.67,0,0,0,.1.83l1.86,1.86a.68.68,0,0,0,.84.11l2.28-1.38.56.24.18.71-.3.41c-1.53,2.05-3.11,4.17-3.36,6.72H21.84v-2a.68.68,0,0,0-.68-.68.69.69,0,0,0-.69.68v2H16.39c-.24-2.55-1.83-4.67-3.37-6.73-1.7-2.27-3.47-4.62-3.47-7.56A11.63,11.63,0,0,1,21.16,1.36Zm-.1,2.05A9.53,9.53,0,0,0,15.91,5a.68.68,0,0,0,.38,1.25.62.62,0,0,0,.37-.11,8.2,8.2,0,0,1,6-1.21.68.68,0,0,0,.25-1.34A10.4,10.4,0,0,0,21.06,3.41Zm10.23,0h1.57l.6,2.43a.69.69,0,0,0,.46.49,7.74,7.74,0,0,1,1,.43.67.67,0,0,0,.67,0l2.15-1.3,1.1,1.12L37.6,8.72a.67.67,0,0,0,0,.66,7.13,7.13,0,0,1,.44,1,.66.66,0,0,0,.48.46l2.43.61v1.57l-2.43.61a.66.66,0,0,0-.48.46,7.13,7.13,0,0,1-.44,1,.67.67,0,0,0,0,.66L38.89,18l-1.1,1.12-2.15-1.3a.67.67,0,0,0-.67,0,7.74,7.74,0,0,1-1,.43.69.69,0,0,0-.46.49l-.6,2.43H31.29l-.61-2.43s0,0,0-.05a.66.66,0,0,0-.45-.44,8.18,8.18,0,0,1-1-.43.67.67,0,0,0-.67,0l-2.15,1.3L25.24,18l1.29-2.15a.67.67,0,0,0,0-.66,6.19,6.19,0,0,1-.44-1,.66.66,0,0,0-.48-.46l-2.43-.61V11.5l2.43-.61a.66.66,0,0,0,.48-.46,6.19,6.19,0,0,1,.44-1,.67.67,0,0,0,0-.66L25.24,6.57l1.11-1.12,2.15,1.3a.69.69,0,0,0,.67,0,8.18,8.18,0,0,1,1-.43.62.62,0,0,0,.31-.2.64.64,0,0,0,.16-.29L31,4.54ZM3.43,5.13a.68.68,0,0,0-.63.42.69.69,0,0,0,.38.89l2.54,1A.57.57,0,0,0,6,7.52.69.69,0,0,0,6.23,6.2l-2.53-1A.63.63,0,0,0,3.43,5.13ZM32.07,8.87a3.42,3.42,0,1,0,3.41,3.41A3.41,3.41,0,0,0,32.07,8.87Zm0,1.37a2,2,0,1,1-2.05,2A2.05,2.05,0,0,1,32.07,10.24Zm-31.39,2a.69.69,0,0,0,0,1.37h4.1a.69.69,0,0,0,0-1.37ZM18.43,15a.71.71,0,0,0-.49.2.7.7,0,0,0,0,1l1.37,1.36a.65.65,0,0,0,.48.2.63.63,0,0,0,.48-.2.67.67,0,0,0,0-1l-1.36-1.37A.69.69,0,0,0,18.43,15Zm4.09,1.37a.71.71,0,0,0-.49.2l-1.36,1.36a.74.74,0,0,0-.2.49v4.09a.68.68,0,0,0,.69.68.67.67,0,0,0,.68-.68V18.71L23,17.55a.68.68,0,0,0,0-1A.69.69,0,0,0,22.52,16.38ZM6,18.42a.75.75,0,0,0-.26,0l-2.54,1a.68.68,0,0,0,.26,1.32.85.85,0,0,0,.26,0l2.53-1a.68.68,0,0,0,.37-.89A.67.67,0,0,0,6,18.42Zm10.4,10.24h9.55v.77l-9.55,1.19Zm9.55,2.14v1.36L19,33a.68.68,0,0,0,.08,1.35h.09l6.4-.8a3.39,3.39,0,0,1-3.05,1.91H19.79a3.41,3.41,0,0,1-3.41-3.41V32Zm-5.46,6.05h1.37v.69H20.47Z"/></g></g></svg>