<?xml version="1.0" encoding="utf-8"?>
<!-- Generator: Adobe Illustrator 27.3.1, SVG Export Plug-In . SVG Version: 6.00 Build 0)  -->
<svg version="1.1" id="Layer_1" xmlns="http://www.w3.org/2000/svg" xmlns:xlink="http://www.w3.org/1999/xlink" x="0px" y="0px"
	 viewBox="0 0 89.2 98" style="enable-background:new 0 0 89.2 98;" xml:space="preserve">
<style type="text/css">
	.st0{fill:#ED1C24;}
	.st1{fill:#FFFFFF;}
</style>
<path class="st0" d="M88.8,1v96.4L3.3,60.3C20,28.5,51.6,5.6,88.8,1z"/>
<g>
	<path class="st1" d="M22.8,60.9l5.4,3.2l-0.9,1.6l-12.4-7.4l2.7-4.4c0.8-1.3,1.7-2.2,2.8-2.6c1.1-0.4,2.2-0.1,3.2,0.5
		c0.7,0.4,1.1,0.9,1.3,1.5c0.3,0.7,0.4,1.3,0.3,2.2c0.7-0.5,1.3-0.8,2-0.8s1.3,0.3,2.2,0.7l1.2,0.7c0.4,0.3,0.8,0.4,1.1,0.5
		c0.4,0.1,0.7,0.1,1.1,0l0.3,0.1l-1.3,1.6c-0.3,0.1-0.7,0.1-1.1-0.1c-0.4-0.1-0.8-0.4-1.2-0.5L28.3,57c-0.7-0.4-1.3-0.5-2-0.4
		c-0.7,0.1-1.2,0.5-1.6,1.2L22.8,60.9z M21.5,60.1l1.6-2.7c0.5-0.9,0.8-1.7,0.7-2.4c-0.1-0.7-0.5-1.2-1.2-1.6s-1.3-0.5-2-0.4
		c-0.7,0.1-1.2,0.7-1.7,1.6l-1.7,3L21.5,60.1z"/>
	<path class="st1" d="M30.5,49.3l4.8,4L34,54.8l-11.2-9.3l3.4-4c1.1-1.2,2-1.9,3.1-2.2c1.1-0.1,2.2,0.1,3.1,0.9
		c0.5,0.5,0.9,1.1,1.1,1.7c0.1,0.7,0.1,1.3-0.1,2.2c0.7-0.4,1.3-0.7,2-0.5s1.3,0.4,2,0.9l1.1,0.8c0.4,0.3,0.7,0.5,1.1,0.7
		c0.4,0.1,0.7,0.3,0.9,0.1l0.1,0.1L39.2,48c-0.4,0-0.7,0-1.1-0.3c-0.4-0.3-0.8-0.5-1.1-0.8L36,46.1c-0.5-0.5-1.2-0.7-1.9-0.7
		s-1.2,0.4-1.7,0.9L30.5,49.3z M29.3,48.2l2-2.4c0.7-0.8,1.1-1.6,1.1-2.3s-0.4-1.2-1.1-1.7c-0.7-0.5-1.2-0.8-1.9-0.7
		c-0.7,0.1-1.3,0.5-1.9,1.2l-2.2,2.6L29.3,48.2z"/>
	<path class="st1" d="M44.7,34.3l-1.3,1.1l4,5.1l-1.5,1.2l-9-11.3l1.5-1.2l4,5l1.2-0.9V25l1.7-1.3l0,0l-0.1,8.9l9.3,2l0,0L52.7,36
		L44.7,34.3z"/>
	<path class="st1" d="M61.4,30.9c-0.3-0.3-0.4-0.4-0.5-0.7c-0.1-0.1-0.3-0.4-0.4-0.7c0,0.7-0.3,1.2-0.5,1.9
		c-0.3,0.5-0.8,1.1-1.3,1.3c-0.9,0.5-1.9,0.8-2.7,0.5c-0.8-0.1-1.5-0.7-2-1.6c-0.5-0.9-0.5-1.7-0.1-2.7c0.4-0.9,1.2-1.7,2.4-2.4
		l1.9-1.1l-0.5-0.9c-0.3-0.5-0.7-0.8-1.2-0.9c-0.5-0.1-1.1,0-1.6,0.4c-0.5,0.3-0.9,0.7-1.1,1.2c-0.1,0.5-0.1,0.9,0.1,1.3l-1.6,0.9
		l0,0c-0.4-0.7-0.5-1.5-0.1-2.4c0.4-0.9,1.1-1.7,2.2-2.4c1.1-0.7,2-0.8,3-0.7c0.9,0.1,1.7,0.7,2.3,1.7l2.7,4.4
		c0.1,0.3,0.4,0.7,0.7,0.9c0.3,0.3,0.4,0.5,0.7,0.8L61.4,30.9z M57.9,31.3c0.7-0.4,1.1-0.8,1.3-1.5c0.3-0.5,0.4-1.2,0.3-1.6
		l-0.9-1.5l-1.9,1.1c-0.7,0.4-1.1,0.9-1.3,1.5s-0.1,1.1,0.1,1.6c0.3,0.4,0.5,0.7,0.9,0.8C57,31.7,57.4,31.6,57.9,31.3z"/>
	<path class="st1" d="M71.5,20.7c0.7,1.5,0.8,2.7,0.4,3.9c-0.3,1.2-1.1,2-2.3,2.6c-0.7,0.3-1.2,0.4-1.9,0.4c-0.5,0-1.2-0.3-1.6-0.5
		l0.4,1.3L65,29L59,14.8l1.7-0.8l2.4,5.5c0.1-0.5,0.4-1.1,0.7-1.5c0.4-0.4,0.8-0.8,1.5-1.1c1.2-0.5,2.4-0.4,3.5,0.3
		c1.1,0.7,2,1.7,2.7,3.4L71.5,20.7z M69.6,21.2c-0.5-1.1-1.1-2-1.7-2.6c-0.7-0.5-1.5-0.7-2.4-0.3c-0.5,0.3-0.9,0.5-1.2,0.9
		c-0.3,0.4-0.4,0.9-0.4,1.5l1.9,4.3c0.4,0.4,0.9,0.7,1.3,0.8c0.5,0.1,1.1,0,1.6-0.1c0.8-0.4,1.3-0.9,1.5-1.7c0.1-0.8,0-1.6-0.4-2.7
		L69.6,21.2z"/>
	<path class="st1" d="M79.7,23.6c-1.5,0.4-2.7,0.3-3.9-0.4c-1.1-0.7-1.9-1.9-2.3-3.4l-0.1-0.5c-0.4-1.5-0.3-2.8,0.3-4
		c0.5-1.2,1.5-2,2.7-2.3c1.3-0.4,2.6-0.3,3.5,0.4c0.9,0.7,1.6,1.6,2,3.1l0.3,1.2l-6.7,1.9l0,0c0.3,0.9,0.8,1.7,1.5,2.3
		c0.7,0.5,1.5,0.7,2.3,0.4c0.7-0.1,1.2-0.4,1.6-0.8c0.4-0.3,0.8-0.7,1.1-1.1l1.1,1.1c-0.3,0.5-0.7,0.9-1.2,1.3
		C81.2,23.1,80.5,23.4,79.7,23.6z M76.7,14.5c-0.7,0.1-1.1,0.5-1.3,1.2C75.1,16.4,75,17,75.1,18l0,0l4.7-1.3l-0.1-0.3
		c-0.3-0.7-0.5-1.3-1.1-1.6C78.2,14.4,77.5,14.2,76.7,14.5z"/>
	<path class="st1" d="M86.5,21.7l-1.9,0.4L81.4,7.1l1.9-0.4L86.5,21.7z"/>
</g>
<g>
	<path class="st1" d="M37.9,68.7l3,2l-0.4,0.5l-7.1-4.8l1.6-2.4c0.5-0.8,1.1-1.2,1.7-1.3c0.7-0.1,1.3,0,1.9,0.4
		c0.7,0.4,0.9,0.9,1.1,1.6c0.1,0.7-0.1,1.3-0.7,2.2L37.9,68.7z M37.5,68.3l1.2-1.9c0.4-0.5,0.5-1.1,0.4-1.6
		c-0.1-0.5-0.4-0.9-0.8-1.2s-0.9-0.4-1.5-0.3c-0.5,0.1-0.9,0.4-1.3,1.1l-1.2,1.9L37.5,68.3z"/>
	<path class="st1" d="M42.2,62.2l3,2.6l-0.4,0.5l-6.6-5.6l1.9-2.3c0.5-0.7,1.2-1.1,1.9-1.2s1.2,0.1,1.9,0.5c0.4,0.3,0.5,0.7,0.7,1.1
		c0.1,0.4,0,0.9-0.1,1.3c0.4-0.3,0.9-0.4,1.3-0.4c0.4,0,0.8,0.3,1.2,0.5l0.7,0.5c0.3,0.1,0.4,0.3,0.7,0.4c0.3,0.1,0.4,0.1,0.5,0.1
		l0.1,0.1L48.4,61c-0.3,0-0.4,0-0.7-0.1c-0.3-0.1-0.4-0.3-0.7-0.4l-0.5-0.5c-0.4-0.4-0.8-0.5-1.3-0.4s-0.9,0.3-1.3,0.8L42.2,62.2z
		 M41.6,61.8l1.3-1.6c0.5-0.5,0.8-1.1,0.8-1.6c0-0.5-0.3-0.9-0.7-1.2c-0.4-0.4-0.9-0.5-1.3-0.4c-0.4,0.1-0.9,0.4-1.3,0.9l-1.5,1.7
		L41.6,61.8z"/>
	<path class="st1" d="M50.5,58.9L50,59.4l-6.1-6.2l0.5-0.5L50.5,58.9z"/>
	<path class="st1" d="M54.9,51.3L54.9,51.3c0.5,0.7,0.7,1.5,0.7,2.2c-0.1,0.7-0.5,1.3-1.2,2c-0.8,0.7-1.6,0.8-2.6,0.7
		c-0.9-0.1-1.7-0.7-2.4-1.5l-0.9-1.1c-0.7-0.8-1.1-1.7-1.1-2.7c0-0.9,0.4-1.6,1.1-2.3c0.7-0.5,1.5-0.9,2.2-0.8c0.7,0,1.3,0.4,2,0.9
		l0,0l-0.5,0.4c-0.5-0.5-1.1-0.8-1.6-0.8s-1.1,0.1-1.6,0.7c-0.5,0.5-0.8,1.1-0.8,1.9s0.4,1.5,0.9,2.2l0.9,1.1c0.5,0.7,1.2,1.1,2,1.3
		c0.7,0.1,1.3,0,2-0.5c0.5-0.4,0.8-0.9,0.9-1.5c0-0.5-0.1-1.1-0.5-1.7L54.9,51.3z"/>
	<path class="st1" d="M59.7,46.2l-3.5,2.3l2,3l3.9-2.7l0.4,0.5l-4.6,3.1l-4.7-7.1l4.6-3.1l0.4,0.5l-3.9,2.7l1.7,2.7l3.5-2.3
		L59.7,46.2z"/>
	<path class="st1" d="M66.5,46.5l3.9-1.9l0.3,0.5l-4.4,2.2l-3.8-7.8l0.7-0.3L66.5,46.5z"/>
	<path class="st1" d="M72.7,44.5L72,44.7l-3.2-8.1l0.7-0.3L72.7,44.5z"/>
	<path class="st1" d="M78.9,40.2c-0.1-0.4-0.4-0.8-0.8-0.9c-0.4-0.1-1.1-0.3-2-0.3s-1.7,0-2.3-0.3c-0.5-0.3-0.9-0.7-1.2-1.2
		c-0.1-0.7-0.1-1.2,0.3-1.7c0.4-0.5,0.9-0.9,1.9-1.2c0.8-0.3,1.6-0.3,2.3,0.1c0.7,0.3,1.1,0.8,1.3,1.5l0,0l-0.7,0.1
		c-0.1-0.5-0.5-0.9-1.1-1.2c-0.5-0.3-1.1-0.3-1.7,0c-0.7,0.3-1.1,0.5-1.5,0.9c-0.3,0.4-0.4,0.8-0.3,1.2c0.1,0.4,0.4,0.7,0.8,0.9
		c0.4,0.1,1.1,0.3,2,0.1c0.9,0,1.7,0,2.3,0.3c0.5,0.3,0.9,0.7,1.2,1.3c0.3,0.7,0.1,1.2-0.3,1.9c-0.4,0.5-0.9,0.9-1.7,1.2
		c-0.8,0.3-1.6,0.3-2.3,0c-0.8-0.3-1.2-0.7-1.5-1.5l0,0l0.7-0.1c0.1,0.7,0.5,1.1,1.2,1.2c0.5,0.1,1.2,0.1,1.9,0
		c0.7-0.3,1.1-0.5,1.5-0.9C78.9,41,79,40.6,78.9,40.2z"/>
	<path class="st1" d="M85.7,32.6l-3,0.5l1.6,7.9l-0.7,0.1l-1.6-7.9l-3,0.5L79,33.3l6.6-1.3L85.7,32.6z"/>
</g>
<polygon class="st1" points="78.7,69.6 75.2,73 75.2,58.5 73.6,58.5 73.6,72.8 70.3,69.5 69.1,70.6 74.6,76.1 79.8,70.7 "/>
<g>
	<rect x="68.4" y="78.1" class="st1" width="12.1" height="1.7"/>
</g>
</svg>
