<?xml version="1.0" encoding="utf-8"?>
<!-- Generator: Adobe Illustrator 27.3.1, SVG Export Plug-In . SVG Version: 6.00 Build 0)  -->
<svg version="1.1" id="Layer_1" xmlns="http://www.w3.org/2000/svg" xmlns:xlink="http://www.w3.org/1999/xlink" x="0px" y="0px"
	 viewBox="0 0 89.2 98" style="enable-background:new 0 0 89.2 98;" xml:space="preserve">
<style type="text/css">
	.st0{fill:#D46A29;}
	.st1{fill:#FFFFFF;}
</style>
<path class="st0" d="M1.4,37.7L87.8,0.8v96.4C50.2,92.6,18.3,69.7,1.4,37.7z"/>
<g>
	<path class="st1" d="M15.2,40.3l-3.9,2.9l-0.8-1.2l9.3-6.5l2.3,3.4c0.7,1,1.1,1.9,1,2.7c-0.1,0.8-0.5,1.6-1.4,2.2
		c-0.4,0.3-1,0.5-1.5,0.5c-0.5,0-1.1-0.1-1.6-0.5c0.1,0.7,0.1,1.2,0,1.6c-0.3,0.5-0.5,1-1.1,1.4l-0.8,0.5c-0.3,0.1-0.5,0.4-0.7,0.7
		c-0.1,0.3-0.3,0.4-0.3,0.7l-0.1,0.1l-1-1.2c0-0.3,0.1-0.5,0.4-0.8c0.3-0.3,0.5-0.4,0.8-0.7l0.8-0.5c0.5-0.4,0.8-0.8,1-1.2
		c0.1-0.5,0-1-0.4-1.5L15.2,40.3z M16.1,39.6l1.4,1.9c0.5,0.7,1,1.1,1.5,1.2c0.5,0.1,1,0,1.5-0.4s0.8-0.8,1-1.4
		c0.1-0.5-0.1-1.1-0.5-1.8l-1.5-2L16.1,39.6z"/>
	<path class="st1" d="M21.6,49l-3.7,3.3l-1-1.1l8.6-7.4l2.7,3.1c0.8,1,1.2,1.8,1.2,2.7c0,0.8-0.4,1.6-1.2,2.3
		c-0.4,0.4-1,0.5-1.5,0.7c-0.5,0-1.1,0-1.6-0.3c0.3,0.5,0.3,1.1,0.1,1.6c-0.1,0.5-0.5,1-1,1.4l-0.8,0.7c-0.3,0.3-0.5,0.4-0.7,0.7
		s-0.3,0.5-0.3,0.8l-0.1,0.1l-1.1-1.2c0-0.3,0.1-0.5,0.3-0.8c0.3-0.3,0.4-0.5,0.7-0.8l0.8-0.7c0.4-0.4,0.7-0.8,0.8-1.4
		c0-0.5-0.1-1-0.5-1.5L21.6,49z M22.5,48.2l1.6,1.8c0.5,0.7,1.1,1,1.6,1.1c0.5,0.1,1-0.1,1.5-0.5c0.5-0.4,0.7-0.8,0.7-1.4
		c0-0.5-0.3-1.1-0.7-1.6l-1.6-1.9L22.5,48.2z"/>
	<path class="st1" d="M34,64.3c0.3-0.4,0.4-0.8,0.4-1.4c0-0.5-0.4-1.2-1-2c-0.7-1-1.1-1.9-1.2-2.7c-0.1-0.8,0-1.6,0.7-2.2
		c0.5-0.7,1.4-1,2.3-1s1.8,0.4,2.7,1.2c1,0.8,1.5,1.8,1.5,2.7c0.1,1-0.1,1.8-0.7,2.5l0,0l-1.1-1c0.4-0.5,0.7-1.1,0.5-1.6
		c0-0.5-0.4-1.2-1-1.6c-0.5-0.5-1.1-0.8-1.6-0.8c-0.5,0-1,0.1-1.4,0.7c-0.3,0.4-0.4,0.8-0.3,1.4c0.1,0.5,0.4,1.2,1.1,2
		c0.7,1,1.1,1.9,1.2,2.7c0.1,0.8-0.1,1.6-0.7,2.2c-0.5,0.7-1.4,1-2.3,1c-1-0.1-1.9-0.5-2.7-1.2c-0.8-0.7-1.4-1.6-1.6-2.6
		c-0.3-1.1,0-1.9,0.7-2.7l0,0l1.1,1c-0.4,0.5-0.7,1.1-0.5,1.8c0.1,0.7,0.5,1.2,1.1,1.8c0.5,0.5,1.1,0.8,1.6,0.8
		C33.2,64.8,33.7,64.7,34,64.3z"/>
	<path class="st1" d="M40.8,64c0.4-0.1,1-0.3,1.4-0.1c0.4,0,1,0.3,1.4,0.5c0.7,0.5,1.1,1.1,1.2,1.9c0.1,0.7-0.1,1.5-0.8,2.5l-3,4.2
		l-1.2-1l3.1-4.4c0.4-0.5,0.5-1.1,0.5-1.5s-0.3-0.8-0.8-1.2c-0.4-0.3-0.7-0.4-1.1-0.4c-0.4,0-0.8,0-1.2,0.1l-3.7,5l-1.2-1l7.1-9.8
		l1.2,1L40.8,64z"/>
	<path class="st1" d="M50.3,70.4L49.6,70c-0.4-0.3-0.7-0.3-1-0.3s-0.7,0.1-1,0.4l-3.1,5.2l-1.4-0.8l4.4-7.2l1.2,0.7L48.3,69
		c0.4-0.3,0.8-0.4,1.2-0.4c0.4,0,0.8,0.1,1.2,0.3c0.1,0,0.1,0.1,0.3,0.1c0.1,0.1,0.1,0.1,0.1,0.1L50.3,70.4z"/>
	<path class="st1" d="M52.9,79.8c0.1-0.3,0.1-0.4,0.1-0.7c0-0.1,0.1-0.4,0.3-0.5c-0.4,0.3-1,0.4-1.5,0.4c-0.5,0-1.1-0.1-1.5-0.3
		c-0.8-0.4-1.2-1-1.5-1.5c-0.1-0.5-0.1-1.2,0.3-1.9c0.4-0.7,1-1.1,1.8-1.2c0.8-0.1,1.6,0.1,2.7,0.7l1.5,0.8l0.4-0.7
		c0.3-0.4,0.3-0.8,0.1-1.2c-0.1-0.4-0.4-0.7-1-1c-0.4-0.3-0.8-0.3-1.2-0.3c-0.4,0.1-0.7,0.3-0.8,0.5l-1.4-0.7l0,0
		c0.3-0.5,0.8-1,1.5-1.1c0.8-0.1,1.6,0,2.5,0.4c0.8,0.4,1.4,1,1.8,1.8c0.3,0.7,0.3,1.5-0.1,2.3l-1.9,3.5c-0.1,0.3-0.3,0.5-0.4,0.8
		c-0.1,0.3-0.1,0.5-0.3,0.8L52.9,79.8z M51.1,77.6c0.5,0.3,1,0.4,1.5,0.3c0.5,0,1-0.1,1.2-0.4l0.7-1.2L53,75.4
		c-0.5-0.3-1.1-0.4-1.5-0.3c-0.4,0.1-0.8,0.4-1,0.7c-0.1,0.3-0.1,0.7-0.1,1C50.4,77.2,50.7,77.5,51.1,77.6z"/>
	<path class="st1" d="M61.1,74.5l-0.3,1.1c0.4-0.3,0.8-0.4,1.4-0.5c0.4,0,1,0,1.5,0.3c0.5,0.1,1,0.5,1.2,0.8
		c0.3,0.3,0.4,0.8,0.4,1.4c0.4-0.4,0.8-0.5,1.4-0.7c0.5-0.1,1.1,0,1.6,0.1c0.8,0.3,1.4,0.8,1.6,1.5c0.3,0.7,0.1,1.6-0.3,2.7
		l-1.8,4.6l-1.4-0.5l1.5-4.5c0.3-0.8,0.4-1.4,0.3-1.8s-0.5-0.7-1-1c-0.5-0.1-1-0.1-1.4,0c-0.4,0.3-0.8,0.5-1.1,1.1l0,0l-1.9,5
		l-1.5-0.5l1.8-4.8c0.3-0.7,0.4-1.4,0.3-1.8c-0.1-0.4-0.4-0.8-1-1c-0.4-0.1-0.8-0.3-1.2-0.1c-0.4,0.1-0.7,0.3-1,0.5l-2.2,5.9
		l-1.4-0.5l3-7.9L61.1,74.5z"/>
	<path class="st1" d="M72.1,87.1l-1.5-0.4l2.3-8l1.5,0.4L72.1,87.1z M75,77.1l-1.5-0.4l0.4-1.5l1.5,0.4L75,77.1z"/>
	<path class="st1" d="M78.1,84.7l-1-0.3l-0.8,3.8L74.8,88l2.6-11.8l1.5,0.3l-1.5,6.8l1,0.3l3-2.7l1.8,0.4l-3.7,3.1l2.2,5.2L79.9,89
		L78.1,84.7z"/>
</g>
<g>
	<path class="st1" d="M30.3,36.8l-2.9,2.2L27,38.4l6.9-5.4l1.9,2.3c0.5,0.7,0.8,1.4,0.8,2s-0.4,1.2-1,1.8c-0.5,0.5-1.2,0.7-1.9,0.5
		c-0.7-0.1-1.4-0.5-1.9-1.2L30.3,36.8z M30.8,36.3l1.4,1.8c0.4,0.5,1,0.8,1.5,1c0.5,0,1-0.1,1.4-0.4c0.4-0.4,0.7-0.8,0.8-1.2
		c0.1-0.5-0.1-1.1-0.5-1.6L34,34L30.8,36.3z"/>
	<path class="st1" d="M35.5,42.5l-2.9,2.7l-0.5-0.5l6.4-6l2,2.2c0.7,0.7,1,1.4,1.1,2c0,0.7-0.3,1.2-0.8,1.8
		c-0.3,0.3-0.7,0.5-1.2,0.5c-0.4,0-1,0-1.4-0.3c0.3,0.5,0.4,1,0.3,1.4c-0.1,0.4-0.3,0.8-0.7,1.2l-0.5,0.5c-0.1,0.1-0.4,0.4-0.4,0.5
		c-0.1,0.1-0.1,0.4-0.1,0.5l-0.1,0.1L36,48.7c0-0.3,0.1-0.4,0.3-0.7s0.3-0.4,0.5-0.7l0.5-0.5c0.4-0.4,0.5-0.8,0.5-1.2
		s-0.3-1-0.7-1.4L35.5,42.5z M35.9,42.1l1.5,1.6c0.5,0.5,1.1,0.8,1.5,1c0.5,0,1-0.1,1.4-0.5s0.7-0.8,0.5-1.4c0-0.5-0.3-1-0.8-1.5
		l-1.5-1.6L35.9,42.1z"/>
	<path class="st1" d="M38.7,51.3l-0.5-0.5l6-6.4l0.5,0.5L38.7,51.3z"/>
	<path class="st1" d="M47.2,54.9L47.2,54.9c-0.7,0.7-1.4,1-2,1.1c-0.7,0-1.5-0.3-2.2-0.8c-0.8-0.5-1.1-1.4-1.2-2.3
		c-0.1-1,0.3-1.8,1-2.7l1-1.1c0.7-0.8,1.5-1.4,2.5-1.5s1.8,0,2.5,0.7c0.7,0.5,1.1,1.2,1.2,1.9c0.1,0.7-0.1,1.5-0.5,2.2l0,0l-0.5-0.4
		c0.4-0.7,0.5-1.2,0.4-1.8c-0.1-0.5-0.4-1.1-1-1.5c-0.5-0.5-1.2-0.7-2-0.4c-0.7,0.1-1.4,0.7-1.9,1.4l-1,1.1c-0.5,0.7-1,1.5-1,2.2
		c0,0.8,0.3,1.4,0.8,1.9c0.5,0.4,1.1,0.7,1.6,0.7c0.5,0,1.1-0.3,1.6-0.8L47.2,54.9z"/>
	<path class="st1" d="M53.8,57.6l-3.5-2.3l-2,3l3.9,2.7l-0.3,0.5l-4.6-3.1l4.9-7.2l4.6,3l-0.3,0.5L52.6,52l-1.8,2.7l3.5,2.3
		L53.8,57.6z"/>
	<path class="st1" d="M57.4,63.9l3.8,1.9l-0.3,0.5L56.4,64l3.9-7.8l0.7,0.3L57.4,63.9z"/>
	<path class="st1" d="M63.4,67.4l-0.7-0.3l3.5-8l0.7,0.3L63.4,67.4z"/>
	<path class="st1" d="M71.4,68.1c0.1-0.4,0.1-0.8-0.1-1.2c-0.3-0.4-0.7-0.8-1.5-1.4c-0.8-0.5-1.4-1.1-1.8-1.6
		c-0.3-0.5-0.4-1.1-0.1-1.8s0.7-1.1,1.4-1.2c0.7-0.3,1.4-0.1,2.2,0.1c0.8,0.3,1.5,0.8,1.8,1.5c0.4,0.7,0.4,1.4,0.1,2l0,0l-0.7-0.3
		c0.1-0.5,0.1-1.1-0.1-1.6c-0.3-0.5-0.7-0.8-1.4-1.1c-0.7-0.3-1.2-0.3-1.8-0.1c-0.5,0.1-0.8,0.4-1,1c-0.1,0.4-0.1,0.8,0.1,1.2
		c0.3,0.4,0.7,0.8,1.5,1.4c0.8,0.5,1.4,1.1,1.6,1.6s0.4,1.1,0.1,1.8s-0.7,1.1-1.4,1.2c-0.7,0.1-1.5,0.1-2.3-0.1
		c-0.8-0.3-1.5-0.8-1.9-1.4c-0.4-0.7-0.5-1.4-0.3-2.2l0,0l0.7,0.3c-0.3,0.7-0.1,1.2,0.1,1.6c0.4,0.5,0.8,0.8,1.5,1.1
		c0.7,0.3,1.2,0.3,1.8,0.1C70.9,68.9,71.3,68.6,71.4,68.1z"/>
	<path class="st1" d="M81.2,64.7l-2.9-0.8l-2,7.9l-0.7-0.1l2-7.9l-2.9-0.8l0.1-0.5l6.5,1.8L81.2,64.7z"/>
</g>
<polygon class="st1" points="77.5,29.3 74,32.7 74,18 72.4,18 72.4,32.5 69,29.1 67.7,30.2 73.3,35.8 78.6,30.4 "/>
<g>
	<rect x="67.1" y="37.8" class="st1" width="12.3" height="1.8"/>
</g>
</svg>
