<svg xmlns="http://www.w3.org/2000/svg" viewBox="0 0 37.52 38.24"><defs><style>.cls-1{fill:#939598;}</style></defs><g id="Layer_2" data-name="Layer 2"><g id="Layer_1-2" data-name="Layer 1"><path class="cls-1" d="M6.21,0a2,2,0,0,0-.4.1A1.21,1.21,0,0,0,5,1.3V4.09l-.87-.86a.62.62,0,0,0-.92,0,.62.62,0,0,0,0,.92L4.09,5H1.3a1.31,1.31,0,0,0-1.19.79A1.33,1.33,0,0,0,.37,7.27L4,10.85A18.44,18.44,0,0,0,1.7,19.61,18,18,0,0,0,9.2,34.2l-2.06,3a.71.71,0,0,0,.13.93.94.94,0,0,0,.4.13A.59.59,0,0,0,8.2,38l2.12-3a17.94,17.94,0,0,0,18.57,0L31,38a.59.59,0,0,0,.53.26.86.86,0,0,0,.39-.13.59.59,0,0,0,.14-.93L30,34.2A17.92,17.92,0,0,0,19.61,1.7,18.33,18.33,0,0,0,10.85,4L7.27.37A1.26,1.26,0,0,0,6.21,0ZM6.34,1.3l4.25,4.25a1.31,1.31,0,0,1,.4.92V10L6.34,5.35ZM19.61,3A16.56,16.56,0,1,1,5,11.85a2.59,2.59,0,0,0,1.53.46h4.84l7.76,7.76a.72.72,0,0,0,.46.2.7.7,0,0,0,.46-.2.64.64,0,0,0,0-.93l-7.69-7.76V6.54A3.17,3.17,0,0,0,11.85,5,15.87,15.87,0,0,1,19.61,3Zm0,2.65a14.83,14.83,0,0,0-6.3,1.46A.58.58,0,0,0,13,8a.6.6,0,0,0,.87.27,12.6,12.6,0,1,1-7,11.27c0-.66.07-1.26.13-1.92a.64.64,0,1,0-1.26-.2,10.92,10.92,0,0,0-.13,2.06A13.93,13.93,0,1,0,19.61,5.68ZM1.3,6.34H5.41L10.06,11H6.54a1.31,1.31,0,0,1-.92-.4Zm18.31,4a9,9,0,0,0-4.31,1.06.64.64,0,1,0,.6,1.13,7.87,7.87,0,0,1,3.64-.93,8.1,8.1,0,0,1,8,8,7.85,7.85,0,0,1-4.31,7,.61.61,0,0,0-.27.86.69.69,0,0,0,.6.33.65.65,0,0,0,.33-.06,9.12,9.12,0,0,0,5-8.16A9.31,9.31,0,0,0,19.61,10.32ZM7.81,13.06a.62.62,0,0,0-.6.31,12,12,0,0,0-.6,1.4.54.54,0,0,0,.33.79c.07,0,.13.07.27.07a.57.57,0,0,0,.59-.4A9.66,9.66,0,0,1,8.33,14a.7.7,0,0,0-.26-.86A.6.6,0,0,0,7.81,13.06Zm4.38,1.55a.71.71,0,0,0-.67.35.81.81,0,0,0,.26.93l1.13.67a.65.65,0,0,0,.33.06.79.79,0,0,0,.6-.33.67.67,0,0,0-.27-.93l-1.13-.66A.58.58,0,0,0,12.19,14.61Zm7.42.35a3.1,3.1,0,0,0-.8.07.69.69,0,0,0-.53.8.7.7,0,0,0,.8.53c.2,0,.4-.07.53-.07a3.32,3.32,0,1,1-3.32,3.32,1.22,1.22,0,0,1,.07-.53.74.74,0,0,0-.53-.8.69.69,0,0,0-.8.53,3.6,3.6,0,0,0-.06.8A4.64,4.64,0,1,0,19.61,15Zm-8.62,4a.64.64,0,0,0-.67.67.63.63,0,0,0,.67.66h1.32a.63.63,0,0,0,.67-.66.64.64,0,0,0-.67-.67ZM13.2,22.6a.71.71,0,0,0-.22.06l-1.13.66a.74.74,0,0,0-.27.93.71.71,0,0,0,.6.33.65.65,0,0,0,.33-.06l1.13-.67a.74.74,0,0,0,.27-.93A.77.77,0,0,0,13.2,22.6ZM16,25.22a.71.71,0,0,0-.68.36L14.7,26.7a.73.73,0,0,0,.27.93.55.55,0,0,0,.33.07.8.8,0,0,0,.6-.33l.66-1.13a.68.68,0,0,0-.27-.93A.63.63,0,0,0,16,25.22Zm3.57,1a.62.62,0,0,0-.66.66v1.33a.66.66,0,1,0,1.32,0V26.9A.62.62,0,0,0,19.61,26.24Z"/></g></g></svg>