<svg xmlns="http://www.w3.org/2000/svg" viewBox="0 0 39.88 38.6"><defs><style>.cls-1{fill:#939598;}</style></defs><g id="Layer_2" data-name="Layer 2"><g id="Layer_1-2" data-name="Layer 1"><path class="cls-1" d="M1.93,0A1.94,1.94,0,0,0,0,1.93V27a2.57,2.57,0,0,0,2.57,2.57h10l-.83.83a.63.63,0,0,0-.19.46.61.61,0,0,0,.19.45l7.07,7.08a.65.65,0,0,0,.91,0l7.08-7.08a.65.65,0,0,0,0-.91L26,29.59H37.31A2.57,2.57,0,0,0,39.88,27V8.36A1.93,1.93,0,0,0,38,6.43H36V5.79a1.93,1.93,0,0,0-1.93-1.93H17.82a1.9,1.9,0,0,1-1.35-.56L14.07.93A3.2,3.2,0,0,0,11.81,0Zm0,1.29h9.88a1.93,1.93,0,0,1,1.35.55l2.4,2.38a3.25,3.25,0,0,0,2.26.93H34.09a.65.65,0,0,1,.65.64V21.87H23.8a.65.65,0,0,0,0,1.29H34.74V27a2.54,2.54,0,0,0,.4,1.28H24.71l-.45-.45a.65.65,0,0,0-.91,0l-.46.45h-1V14.8a.65.65,0,0,0-.64-.65H17.37a.65.65,0,0,0-.65.65V28.3h-1l-.45-.45a.65.65,0,0,0-.91,0l-.45.45H2.57A1.28,1.28,0,0,1,1.29,27V23.16H14.8a.65.65,0,0,0,0-1.29H1.29V1.93A.64.64,0,0,1,1.93,1.29ZM36,7.72H38a.65.65,0,0,1,.65.64V27a1.28,1.28,0,0,1-1.29,1.28A1.45,1.45,0,0,1,36,27ZM18,15.44h2.57V30.88a.64.64,0,0,0,1.1.45l2.12-2.12,1.66,1.67L19.3,37l-6.17-6.16,1.67-1.67,2.11,2.12a.65.65,0,0,0,.7.14.64.64,0,0,0,.4-.59Zm-15.44,9a.65.65,0,0,0-.64.65v1.28a.65.65,0,1,0,1.29,0V25.09A.65.65,0,0,0,2.57,24.44Zm3.22,0a.65.65,0,0,0-.64.65v1.28a.64.64,0,1,0,1.28,0V25.09A.65.65,0,0,0,5.79,24.44Zm3.22,0a.65.65,0,0,0-.65.65v1.28a.65.65,0,1,0,1.29,0V25.09A.65.65,0,0,0,9,24.44Zm3.21,0a.65.65,0,0,0-.64.65v1.28a.65.65,0,1,0,1.29,0V25.09A.65.65,0,0,0,12.22,24.44Zm3.22,0a.64.64,0,0,0-.64.65v1.28a.64.64,0,1,0,1.28,0V25.09A.65.65,0,0,0,15.44,24.44Zm7.72,0a.65.65,0,0,0-.65.65v1.28a.65.65,0,1,0,1.29,0V25.09A.65.65,0,0,0,23.16,24.44Zm3.21,0a.65.65,0,0,0-.64.65v1.28a.65.65,0,1,0,1.29,0V25.09A.65.65,0,0,0,26.37,24.44Zm3.22,0a.65.65,0,0,0-.64.65v1.28a.64.64,0,1,0,1.28,0V25.09A.65.65,0,0,0,29.59,24.44Zm3.22,0a.65.65,0,0,0-.65.65v1.28a.65.65,0,1,0,1.29,0V25.09A.65.65,0,0,0,32.81,24.44Z"/></g></g></svg>