<svg xmlns="http://www.w3.org/2000/svg" viewBox="0 0 39.88 30.88"><defs><style>.cls-1{fill:#939598;}</style></defs><g id="Layer_2" data-name="Layer 2"><g id="Layer_1-2" data-name="Layer 1"><path class="cls-1" d="M1.93,0A1.94,1.94,0,0,0,0,1.93V28.3a2.58,2.58,0,0,0,2.57,2.58H37.31a2.58,2.58,0,0,0,2.57-2.58V8.36A1.93,1.93,0,0,0,38,6.43H36V5.79a1.93,1.93,0,0,0-1.93-1.93H17.82a1.9,1.9,0,0,1-1.35-.56L14.07.93A3.2,3.2,0,0,0,11.81,0Zm0,1.29h9.88a1.93,1.93,0,0,1,1.35.55l2.4,2.38a3.2,3.2,0,0,0,2.26.93H34.09a.65.65,0,0,1,.65.64V28.3a2.55,2.55,0,0,0,.4,1.29H2.57A1.28,1.28,0,0,1,1.29,28.3V24.44H27.66a.64.64,0,0,0,0-1.28H1.29V1.93A.64.64,0,0,1,1.93,1.29ZM15.45,7.6a1.36,1.36,0,0,0-.65.16,1.26,1.26,0,0,0-.65,1.13V19.42a1.24,1.24,0,0,0,.65,1.12,1.22,1.22,0,0,0,.62.16,1.31,1.31,0,0,0,.68-.2l8.31-5.26a1.28,1.28,0,0,0,.6-1.09,1.25,1.25,0,0,0-.6-1.08L16.1,7.8A1.37,1.37,0,0,0,15.45,7.6ZM36,7.72H38a.65.65,0,0,1,.65.64V28.3a1.29,1.29,0,0,1-1.29,1.29A1.45,1.45,0,0,1,36,28.3ZM15.41,8.89l8.32,5.26-8.31,5.27ZM30.23,23.16a.64.64,0,0,0-.64.64.64.64,0,0,0,.64.64h2.58a.64.64,0,0,0,.64-.64.64.64,0,0,0-.64-.64Zm-27,2.57a.65.65,0,0,0-.65.64v1.29a.65.65,0,0,0,1.29,0V26.37A.64.64,0,0,0,3.22,25.73Zm3.21,0a.64.64,0,0,0-.64.64v1.29a.65.65,0,0,0,1.29,0V26.37A.65.65,0,0,0,6.43,25.73Zm3.22,0a.64.64,0,0,0-.64.64v1.29a.64.64,0,0,0,1.28,0V26.37A.64.64,0,0,0,9.65,25.73Zm3.22,0a.65.65,0,0,0-.65.64v1.29a.65.65,0,0,0,1.29,0V26.37A.64.64,0,0,0,12.87,25.73Zm3.21,0a.64.64,0,0,0-.64.64v1.29a.64.64,0,0,0,1.28,0V26.37A.64.64,0,0,0,16.08,25.73Zm3.22,0a.65.65,0,0,0-.65.64v1.29a.65.65,0,0,0,1.29,0V26.37A.64.64,0,0,0,19.3,25.73Zm3.21,0a.64.64,0,0,0-.64.64v1.29a.65.65,0,0,0,1.29,0V26.37A.65.65,0,0,0,22.51,25.73Zm3.22,0a.64.64,0,0,0-.64.64v1.29a.64.64,0,0,0,1.28,0V26.37A.64.64,0,0,0,25.73,25.73Zm3.22,0a.65.65,0,0,0-.65.64v1.29a.65.65,0,0,0,1.29,0V26.37A.64.64,0,0,0,29,25.73Zm3.21,0a.64.64,0,0,0-.64.64v1.29a.65.65,0,0,0,1.29,0V26.37A.65.65,0,0,0,32.16,25.73Z"/></g></g></svg>