<svg xmlns="http://www.w3.org/2000/svg" viewBox="0 0 39.88 34.6"><defs><style>.cls-1{fill:#939598;}</style></defs><g id="Layer_2" data-name="Layer 2"><g id="Layer_1-2" data-name="Layer 1"><path class="cls-1" d="M8.21,0a.59.59,0,0,0-.59.59V11.73H3.52v1.76H0v4.69H3.52V30.92A3.72,3.72,0,0,0,7.27,34.6H32.61a3.72,3.72,0,0,0,3.75-3.68V18.18h3.52V13.49H36.36V11.73h-4.1V.59A.58.58,0,0,0,31.67,0ZM8.8,1.17H31.08V11.75L24.23,12h0a2.47,2.47,0,1,0,0,4.93h1.95a.92.92,0,1,1,0,1.83H13.72a.92.92,0,1,1,0-1.83h1.95a2.47,2.47,0,1,0,0-4.93h0L8.8,11.75Zm2.93,2.35-.47.24-.09.51.36.39.2,0,.47-.23.09-.52-.36-.38Zm2.35,0-.47.24-.1.51.36.39.21,0,.47-.23.09-.52-.36-.38Zm2.34,0L16,3.76l-.09.51.36.39.2,0,.47-.23L17,3.94l-.35-.38Zm2.35,0-.47.24-.09.51.35.39.21,0,.47-.23.09-.52L19,3.56Zm2.34,0-.47.24-.09.51.36.39.2,0,.47-.23.1-.52-.36-.38Zm2.35,0L23,3.76l-.09.51.36.39.2,0,.47-.23L24,3.94l-.36-.38Zm2.35,0-.47.24-.1.51.36.39.21,0,.47-.23.09-.52L26,3.56Zm2.34,0-.47.24-.09.51.36.39.2,0,.47-.23.09-.52-.35-.38ZM11.73,6.45l-.47.24-.09.51.36.39.2,0,.47-.23.09-.52-.36-.38Zm2.35,0-.47.24-.1.51.36.39.21,0,.47-.23.09-.52-.36-.38Zm2.34,0L16,6.69l-.09.51.36.39.2,0,.47-.23L17,6.87l-.35-.38Zm2.35,0-.47.24-.09.51.35.39.21,0,.47-.23.09-.52L19,6.49Zm2.34,0-.47.24-.09.51.36.39.2,0,.47-.23.1-.52-.36-.38ZM11.73,9.38l-.47.24-.09.52.36.38.2,0,.47-.24.09-.52-.36-.38Zm2.35,0-.47.24-.1.52.36.38.21,0,.47-.24.09-.52-.36-.38Zm2.34,0L16,9.62l-.09.52.36.38.2,0,.47-.24L17,9.8l-.35-.38Zm2.35,0-.47.24-.09.52.35.38.21,0,.47-.24.09-.52L19,9.42Zm2.34,0-.47.24-.09.52.36.38.2,0,.47-.24.1-.52-.36-.38Zm2.35,0L23,9.62l-.09.52.36.38.2,0,.47-.24L24,9.8l-.36-.38ZM4.69,12.9h3.5l7.46.28h0a1.3,1.3,0,1,1,0,2.59H13.72a2.09,2.09,0,1,0,0,4.17H26.21a2.09,2.09,0,1,0,0-4.17H24.26a1.3,1.3,0,1,1,0-2.59h0l7.41-.28h3.5v18a2.53,2.53,0,0,1-2.58,2.51H7.27a2.53,2.53,0,0,1-2.58-2.51ZM1.17,14.66H3.52V17H1.17Zm35.19,0h2.35V17H36.36ZM8.21,22.87l-.47.24-.09.52L8,24l.2,0,.47-.24.09-.52-.36-.38Zm2.35,0-.47.24-.1.52.36.38.21,0,.47-.24.09-.52-.36-.38Zm2.34,0-.47.24-.09.52.36.38.2,0,.47-.24.1-.52-.36-.38Zm2.35,0-.47.24-.09.52.36.38.2,0,.47-.24.09-.52-.36-.38Zm2.35,0-.47.24-.1.52.36.38.21,0,.46-.24.1-.52-.36-.38Zm2.34,0-.47.24-.09.52.36.38.2,0,.47-.24.09-.52-.35-.38Zm2.35,0-.47.24-.1.52.36.38.21,0,.47-.24.09-.52-.36-.38Zm2.34,0-.47.24-.09.52.36.38.2,0,.47-.24.1-.52-.36-.38Zm2.35,0-.47.24-.09.52.36.38.2,0,.47-.24.09-.52-.36-.38Zm2.35,0-.47.24-.1.52.36.38.21,0,.46-.24.1-.52-.36-.38Zm2.34,0-.47.24-.09.52.36.38.2,0,.47-.24.09-.52-.35-.38ZM9.38,25.81,8.91,26l-.09.52.36.38.2,0,.47-.24.1-.51-.36-.39Zm2.35,0-.47.23-.09.52.36.38.2,0,.47-.24.09-.51-.36-.39Zm2.35,0-.47.23-.1.52.36.38.21,0,.47-.24.09-.51-.36-.39Zm2.34,0L16,26l-.09.52.36.38.2,0,.47-.24.09-.51-.35-.39Zm2.35,0L18.3,26l-.09.52.35.38.21,0,.47-.24.09-.51L19,25.84Zm2.34,0-.47.23-.09.52.36.38.2,0,.47-.24.1-.51-.36-.39Zm2.35,0L23,26l-.09.52.36.38.2,0,.47-.24.09-.51-.36-.39Zm2.35,0-.47.23-.1.52.36.38.21,0,.47-.24.09-.51L26,25.84Zm2.34,0-.47.23-.09.52.36.38.2,0,.47-.24.09-.51-.35-.39Zm2.35,0L30,26l-.09.52.35.38.21,0,.47-.24.09-.51-.36-.39ZM12.32,29.33a.58.58,0,0,0-.6.57.6.6,0,0,0,.58.6H27.57a.59.59,0,0,0,.59-.58.58.58,0,0,0-.58-.59H12.32Z"/></g></g></svg>