<svg xmlns="http://www.w3.org/2000/svg" viewBox="0 0 34.71 34.78"><defs><style>.cls-1{fill:#e62020;}</style></defs><g id="Layer_2" data-name="Layer 2"><g id="Layer_1-2" data-name="Layer 1"><path class="cls-1" d="M4.49,3.36c0-.86,0-1.65,0-2.44S4.61,0,5.37,0h24c.76,0,.88.14.89.92v11.6a3.05,3.05,0,0,1,.29-.11c.5-.13.77,0,.82.53a4,4,0,0,1,0,.49V28.28c0,.82-.26,1-1.12.7,0,.5,0,1,0,1.45A4.08,4.08,0,0,1,26,34.78c-7.66-.06-15.32,0-23,0A2.8,2.8,0,0,1,.08,32.57,3.89,3.89,0,0,1,0,31.74V4.35c0-.89.1-1,1-1ZM5.61,1.14V30.89a4.3,4.3,0,0,1-.56,2.75H26.53a2.77,2.77,0,0,0,2.6-2.57c.06-1,0-2,0-3q-2-1.38-3.9-2.73a2,2,0,0,0-.57-.18V26c0,1.05,0,2.1,0,3.16a2.24,2.24,0,1,1-4.48,0c0-1.15,0-2.29,0-3.44v-.64a3.51,3.51,0,0,1-2.24-3.62c0-.58,0-1.17,0-1.75a3.37,3.37,0,0,1,3.47-3.44c1.05,0,2.1,0,3.15,0a1.38,1.38,0,0,0,.73-.17c1.29-.87,2.56-1.78,3.81-2.66V1.14ZM1.12,4.5V31.58a3.54,3.54,0,0,0,0,.56,1.7,1.7,0,0,0,1.52,1.49,1.64,1.64,0,0,0,1.72-1.15,2.41,2.41,0,0,0,.1-.76q0-13.33,0-26.68a5.16,5.16,0,0,0-.05-.54ZM24.64,17.39c-1.21,0-2.35,0-3.49,0a2.19,2.19,0,0,0-2.08,2.15c0,.79,0,1.59,0,2.38a2.21,2.21,0,0,0,2.21,2.17c.84,0,1.68,0,2.52,0h.84ZM28,25.91V15.57L25.82,17.1v7.29Zm2.25,1.59V14l-1.07.74v12Zm-8.94-2.24c0,1.29,0,2.52,0,3.75a1.12,1.12,0,1,0,2.23,0c0-.91,0-1.82,0-2.72v-1Z"/><path class="cls-1" d="M32.83,17.61,32.2,17l1.69-1.56.53.66Z"/><path class="cls-1" d="M34.42,23.24l-.6.67-1.62-1.7.63-.61Z"/><path class="cls-1" d="M32.55,20.14v-1h2.16v1Z"/><path class="cls-1" d="M17.46,2.24h9.59c.87,0,1,.11,1,1q0,4.09,0,8.19c0,.82-.11.95-.92.95H7.64c-.78,0-.91-.13-.91-.89V3.12c0-.75.13-.88.92-.88Zm9.42,1.17h-19v7.77h19Z"/><path class="cls-1" d="M16.82,19.07v4.69c0,.77-.13.91-.89.91H7.6c-.73,0-.87-.14-.87-.86V14.29c0-.67.15-.83.82-.83q4.23,0,8.47,0c.66,0,.8.16.8.85C16.83,15.9,16.82,17.48,16.82,19.07ZM7.9,14.61v8.88h7.76V14.61Z"/><path class="cls-1" d="M6.76,26.87v-1H19v1Z"/><path class="cls-1" d="M6.76,29.11v-1H19v1Z"/><path class="cls-1" d="M19,30.32v1H6.76v-1Z"/><path class="cls-1" d="M11.77,7.33V4.53H12.9V9c0,.17,0,.33,0,.49s-.15.54-.42.56a.85.85,0,0,1-.6-.24,6.63,6.63,0,0,1-.57-.88,14,14,0,0,0-1.19-1.68v2.81H9A2.63,2.63,0,0,1,9,9.67V5.33c0-.09,0-.21,0-.28s.22-.45.39-.51a.82.82,0,0,1,.61.2,2.68,2.68,0,0,1,.39.58l1.28,2.05Z"/><path class="cls-1" d="M19,6.5c.43-.4.75-.4,1.13,0V4.53h1.14V9.07c0,.17,0,.33,0,.49s-.21.52-.49.5a.84.84,0,0,1-.56-.31,3.39,3.39,0,0,1-.31-.7l-.33-.74c-.22.53-.38.93-.55,1.33a.57.57,0,0,1-.63.44c-.36-.06-.49-.32-.49-.67V4.54H19Z"/><path class="cls-1" d="M16.79,4.49V5.61H15.17v1.1h1.61V7.83H15.19V9h1.59v1.12c-.74,0-1.5,0-2.25,0-.4,0-.52-.33-.52-.7,0-1,0-1.92,0-2.87,0-.45,0-.89,0-1.33s.19-.67.69-.68C15.38,4.47,16.06,4.49,16.79,4.49Z"/><path class="cls-1" d="M22.46,10.09V9h1.16a1.36,1.36,0,0,0,.61,0,.78.78,0,0,0,.4-.5c0-.17-.19-.39-.35-.52s-.31,0-.47-.08A1.68,1.68,0,0,1,24,4.49c.56,0,1.12,0,1.72,0V5.61c-.5,0-1,0-1.46,0s-.69.19-.73.5.19.54.68.62A1.68,1.68,0,0,1,24,10.09Z"/></g></g></svg>